<?xml version="1.0" encoding="UTF-8"?>
<svg version="1.1" xmlns="http://www.w3.org/2000/svg" width="512" height="512">
<path d="M0 0 C4.75144381 1.6581721 7.83567967 4.28149066 10.4375 8.5625 C12.26665479 12.58664054 13.13099403 15.70878845 13.09765625 20.109375 C13.09515869 20.78967773 13.09266113 21.46998047 13.09008789 22.17089844 C13.08098389 23.02200195 13.07187988 23.87310547 13.0625 24.75 C13.041875 27.4725 13.02125 30.195 13 33 C21.25 33 29.5 33 38 33 C37.938125 30.36 37.87625 27.72 37.8125 25 C37.74820508 17.18114707 38.47199028 11.9227737 42.8125 5.1875 C47.34032531 0.65967469 51.21413362 -0.22296531 57.5 -0.4375 C63.77443478 -0.27350909 67.04772898 0.90213753 71.42578125 5.49609375 C74.97281646 9.50274479 76.13113985 12.41104325 76.09765625 17.66796875 C76.09515869 18.47258545 76.09266113 19.27720215 76.09008789 20.10620117 C76.08098389 21.12302979 76.07187988 22.1398584 76.0625 23.1875 C76.041875 26.425625 76.02125 29.66375 76 33 C84.58 33 93.16 33 102 33 C101.84305809 27.10663893 101.84305809 27.10663893 101.63964844 21.21484375 C101.55279832 14.68147364 102.88404512 9.28105896 107.48364258 4.43774414 C112.75416434 -0.15307836 117.25888065 -0.34623062 123.984375 -0.28125 C129.47133296 0.23048701 132.51603415 2.43581978 136.3125 6.4375 C140.14038173 12.25020929 140.25529376 17.04010696 140.125 23.8125 C140.08375 26.844375 140.0425 29.87625 140 33 C148.58 33 157.16 33 166 33 C165.84252727 26.35845377 165.84252727 26.35845377 165.63964844 19.71826172 C165.57081223 13.9460125 166.04875827 10.52480908 170 6 C174.45868539 1.50931447 177.82216989 -0.18489144 184.125 -0.375 C189.43191792 -0.32222402 192.90282359 0.30320402 197.31640625 3.22265625 C202.38338423 8.57178614 203.45173108 12.89298276 203.3515625 20.08007812 C203.30128906 21.49450195 203.30128906 21.49450195 203.25 22.9375 C203.23195313 23.90751953 203.21390625 24.87753906 203.1953125 25.87695312 C203.14850667 28.25234894 203.08296385 30.62563844 203 33 C204.54107422 32.93039063 204.54107422 32.93039063 206.11328125 32.859375 C219.89496365 32.42244364 229.61376385 35.19152124 239.87109375 44.7421875 C248.98763246 54.19201902 250.7464327 65.08348238 250.65942383 77.76464844 C250.6678974 79.20483782 250.67855076 80.64501574 250.69119263 82.08517456 C250.71910646 85.95640414 250.71690919 89.82707527 250.70889878 93.69837475 C250.70575399 97.75832813 250.73086539 101.81810969 250.75285339 105.87799072 C250.7901688 113.5487214 250.80243394 121.21927485 250.8054778 128.89008737 C250.81018227 137.63030829 250.84314992 146.37035316 250.87837565 155.11049604 C250.95014607 173.07364714 250.98680061 191.0367151 251 209 C252.27512451 209.32250732 253.55024902 209.64501465 254.86401367 209.97729492 C256.56957257 210.41556548 258.27505347 210.85413966 259.98046875 211.29296875 C260.81703003 211.50369019 261.65359131 211.71441162 262.51550293 211.93151855 C280.55071683 216.59889019 297.03789022 225.74797809 311 238 C311.77988281 238.64710938 312.55976563 239.29421875 313.36328125 239.9609375 C319.36486495 245.03999797 324.22833182 250.76689839 329 257 C329.59554688 257.76828125 330.19109375 258.5365625 330.8046875 259.328125 C340.32686481 272.22913942 346.72735051 286.61490128 351 302 C351.3403125 303.17691406 351.680625 304.35382813 352.03125 305.56640625 C356.38116682 323.91258321 356.22974992 347.91378152 351 366 C350.80664062 366.69625488 350.61328125 367.39250977 350.4140625 368.10986328 C342.86526043 394.80443109 327.11510457 418.20534087 305 435 C304.23429687 435.59296875 303.46859375 436.1859375 302.6796875 436.796875 C292.44824741 444.35773581 280.97234651 450.28836413 268.9375 454.375 C267.95040039 454.71446655 267.95040039 454.71446655 266.94335938 455.06079102 C250.77734828 460.21032302 234.96103017 460.45043267 218.13956356 460.4214921 C214.66579734 460.41879107 211.19209333 460.43340989 207.71835327 460.44558716 C200.93594995 460.46650965 194.15363234 460.47118986 187.37120053 460.46939927 C181.85584734 460.46808587 176.34052064 460.47192503 170.82517242 460.47932434 C169.22984926 460.48142374 167.6345261 460.48352134 166.03920293 460.48561716 C165.24493867 460.48666069 164.45067441 460.48770422 163.63234153 460.48877937 C148.65649906 460.50762576 133.68070572 460.50664773 118.70485631 460.49981004 C105.02426691 460.49422878 91.34386443 460.51509477 77.66331872 460.54817051 C63.58278365 460.58194695 49.50233807 460.59707159 35.42176175 460.59245348 C27.52968868 460.59021407 19.6377887 460.59537553 11.74575043 460.62034607 C5.03216298 460.64140949 -1.68115625 460.64490061 -8.39475492 460.62604648 C-11.81518249 460.61692257 -15.23511059 460.61564183 -18.6554985 460.63640213 C-22.37309974 460.65463325 -26.08938346 460.64181445 -29.8069458 460.62145996 C-30.873889 460.63397781 -31.9408322 460.64649566 -33.04010701 460.65939283 C-44.55433181 460.52484618 -53.66736191 456.28194479 -61.875 448.32421875 C-71.17383134 438.15362197 -72.4483151 427.56454937 -72.38095093 414.16615295 C-72.38441137 412.6640816 -72.38917853 411.16201278 -72.39513266 409.65994924 C-72.40761939 405.54934697 -72.40148292 401.4389545 -72.39217401 397.32835162 C-72.38537423 392.88859002 -72.39586939 388.44886399 -72.40411377 384.0091095 C-72.41744371 375.31804528 -72.41457655 366.62705884 -72.40587585 357.93599159 C-72.39909637 350.87106776 -72.39818373 343.8061657 -72.4014473 336.74123955 C-72.401907 335.73511469 -72.40236669 334.72898984 -72.40284032 333.69237636 C-72.40379952 331.64833947 -72.40477216 329.60430259 -72.4057581 327.56026571 C-72.41430994 308.39929911 -72.4044813 289.23837559 -72.388357 270.07741605 C-72.37495605 253.64411842 -72.37728047 237.21088437 -72.39111328 220.77758789 C-72.40717624 201.68599715 -72.41348384 182.59444417 -72.40427649 163.50284761 C-72.40332086 161.46609049 -72.40237775 159.42933335 -72.4014473 157.39257622 C-72.40098447 156.39050209 -72.40052164 155.38842796 -72.40004479 154.35598795 C-72.3974569 147.30182578 -72.40182162 140.24768759 -72.40888596 133.19352913 C-72.41730918 124.59351925 -72.41500358 115.99359149 -72.39904372 107.39359099 C-72.39117179 103.00754151 -72.38805099 98.62162884 -72.39799118 94.23558044 C-72.40696106 90.21681893 -72.40196766 86.19832045 -72.38605852 82.17958265 C-72.38272038 80.72948409 -72.38438295 79.27936309 -72.39168589 77.82927907 C-72.45708882 63.75818747 -70.08224513 53.69079064 -60.33984375 43.21484375 C-52.34064533 35.82078564 -43.43799908 32.81475796 -32.75 32.9375 C-32.00492188 32.94201172 -31.25984375 32.94652344 -30.4921875 32.95117188 C-28.6614236 32.96290754 -26.83070127 32.9808415 -25 33 C-25.01571045 32.42556152 -25.0314209 31.85112305 -25.04760742 31.25927734 C-25.11035513 28.63128691 -25.14911506 26.00345463 -25.1875 23.375 C-25.21263672 22.47136719 -25.23777344 21.56773438 -25.26367188 20.63671875 C-25.33244609 14.35534057 -24.73154527 9.90188662 -20.24609375 5.13671875 C-19.64925781 4.65847656 -19.05242187 4.18023437 -18.4375 3.6875 C-17.83808594 3.19636719 -17.23867187 2.70523437 -16.62109375 2.19921875 C-11.80535218 -1.36326959 -5.72015456 -0.58205082 0 0 Z " fill="#E8EBFC" transform="translate(132,26)"/>
<path d="M0 0 C22.17104636 19.76587266 36.66502412 48.26657118 40.09960938 77.71899414 C40.39074464 82.97225278 40.44092403 88.21008909 40.41210938 93.46899414 C40.40995422 94.17687073 40.40779907 94.88474731 40.40557861 95.61407471 C40.35513748 105.93293049 39.98939387 115.72515611 37.09960938 125.71899414 C36.80957031 126.76337646 36.80957031 126.76337646 36.51367188 127.82885742 C28.96486981 154.52342523 13.21471395 177.92433501 -8.90039062 194.71899414 C-9.66609375 195.31196289 -10.43179687 195.90493164 -11.22070312 196.51586914 C-21.45214321 204.07672995 -32.92804412 210.00735827 -44.96289062 214.09399414 C-45.94999023 214.43346069 -45.94999023 214.43346069 -46.95703125 214.77978516 C-63.12304234 219.92931716 -78.93936045 220.16942681 -95.76082706 220.14048624 C-99.23459329 220.13778521 -102.7082973 220.15240403 -106.18203735 220.1645813 C-112.96444067 220.18550379 -119.74675829 220.190184 -126.52919009 220.18839341 C-132.04454329 220.18708002 -137.55986999 220.19091917 -143.0752182 220.19831848 C-144.67054136 220.20041788 -146.26586453 220.20251548 -147.8611877 220.2046113 C-148.65545196 220.20565483 -149.44971622 220.20669836 -150.26804909 220.20777351 C-165.24389157 220.2266199 -180.21968491 220.22564187 -195.19553432 220.21880418 C-208.87612371 220.21322292 -222.55652619 220.23408891 -236.2370719 220.26716465 C-250.31760697 220.30094109 -264.39805256 220.31606573 -278.47862887 220.31144762 C-286.37070194 220.30920821 -294.26260192 220.31436967 -302.1546402 220.33934021 C-308.86822765 220.36040364 -315.58154688 220.36389475 -322.29514554 220.34504062 C-325.71557312 220.33591671 -329.13550122 220.33463597 -332.55588913 220.35539627 C-336.27349036 220.37362739 -339.98977409 220.36080859 -343.70733643 220.3404541 C-344.77427963 220.35297195 -345.84122283 220.3654898 -346.94049764 220.37838697 C-358.45472244 220.24384032 -367.56775253 216.00093893 -375.77539062 208.04321289 C-388.63831687 193.97438731 -385.90039062 178.99226604 -385.90039062 159.71899414 C-322.54039062 159.71899414 -259.18039062 159.71899414 -193.90039062 159.71899414 C-196.54039062 154.43899414 -199.18039063 149.15899414 -201.90039062 143.71899414 C-203.27760126 140.43075141 -204.56811396 137.26223619 -205.71289062 133.90649414 C-205.997854 133.07230957 -206.28281738 132.238125 -206.57641602 131.37866211 C-216.27471917 101.69978683 -214.02981018 67.32055045 -200.08789062 39.34399414 C-194.8977693 29.35811113 -188.97325347 20.11336642 -181.73388672 11.48950195 C-181.26895309 10.93372467 -180.80401947 10.37794739 -180.32499695 9.80532837 C-179.18452443 8.44232687 -178.04260229 7.08053855 -176.90039062 5.71899414 C-177.65522389 5.71660579 -178.41005716 5.71421743 -179.18776417 5.71175671 C-197.54000719 5.65266482 -215.89211505 5.57715223 -234.24421406 5.48327923 C-243.11909614 5.43828076 -251.99393773 5.39887553 -260.86889648 5.37255859 C-268.60276755 5.34961122 -276.33651089 5.31624997 -284.07028073 5.27029258 C-288.16667316 5.24631615 -292.26293875 5.22761644 -296.3593998 5.22138023 C-300.21309989 5.21534923 -304.06647529 5.19542205 -307.92005539 5.16471863 C-309.33621024 5.15590639 -310.75240747 5.15222239 -312.16858864 5.15398598 C-314.09874244 5.15563107 -316.02888259 5.13722134 -317.9589386 5.11772156 C-319.58083335 5.11080811 -319.58083335 5.11080811 -321.23549366 5.103755 C-323.90039062 4.71899414 -323.90039062 4.71899414 -325.77954388 3.41672993 C-326.90039062 1.71899414 -326.90039062 1.71899414 -326.77539062 -1.84350586 C-325.90039062 -5.28100586 -325.90039062 -5.28100586 -322.90039062 -7.28100586 C-320.05151272 -7.51199245 -320.05151272 -7.51199245 -316.51060486 -7.48545837 C-315.85920629 -7.48348955 -315.20780771 -7.48152073 -314.53666979 -7.47949225 C-312.34907863 -7.47072529 -310.16185445 -7.44784076 -307.97436523 -7.42529297 C-306.40709451 -7.41658404 -304.83981775 -7.40890873 -303.27253723 -7.40219116 C-299.89219117 -7.38656003 -296.51193059 -7.36568889 -293.13163567 -7.34144402 C-287.770658 -7.30516452 -282.4098087 -7.29362592 -277.04872131 -7.28797913 C-276.14282397 -7.28691459 -275.23692662 -7.28585006 -274.30357784 -7.28475326 C-272.45051008 -7.28261365 -270.59744227 -7.28052667 -268.74437439 -7.27849114 C-256.26506364 -7.26366214 -243.78632834 -7.23246809 -231.30737305 -7.13378906 C-222.889816 -7.06741445 -214.4731241 -7.04074135 -206.05531126 -7.05834013 C-201.60725858 -7.06607136 -197.16126648 -7.05437854 -192.71357536 -6.99390984 C-166.9661721 -6.29177671 -166.9661721 -6.29177671 -144.67015266 -17.95604134 C-102.56777271 -49.47675347 -35.82343037 -30.89228986 0 0 Z " fill="#446AA9" transform="translate(445.900390625,266.281005859375)"/>
<path d="M0 0 C18.64752869 14.68492884 31.85149363 36.14531505 35 59.83984375 C37.12755738 85.66839035 30.82153449 109.89033797 14 129.83984375 C13.35546875 130.64164063 12.7109375 131.4434375 12.046875 132.26953125 C-1.87052389 148.81577216 -23.5167219 159.80340801 -45 161.83984375 C-70.0534313 163.35500879 -92.36726264 158.16538186 -112 141.83984375 C-112.93457031 141.06769531 -113.86914062 140.29554688 -114.83203125 139.5 C-130.63378602 125.81667473 -143.1027672 103.97027403 -145 82.83984375 C-146.20853108 55.71803245 -140.28015906 31.18893108 -121.71484375 10.70703125 C-88.92053295 -23.92753584 -38.26923737 -27.5558441 0 0 Z " fill="#E8EBFD" transform="translate(415,288.16015625)"/>
<path d="M0 0 C4.75144381 1.6581721 7.83567967 4.28149066 10.4375 8.5625 C12.26665479 12.58664054 13.13099403 15.70878845 13.09765625 20.109375 C13.09515869 20.78967773 13.09266113 21.46998047 13.09008789 22.17089844 C13.08098389 23.02200195 13.07187988 23.87310547 13.0625 24.75 C13.041875 27.4725 13.02125 30.195 13 33 C21.25 33 29.5 33 38 33 C37.938125 30.36 37.87625 27.72 37.8125 25 C37.74820508 17.18114707 38.47199028 11.9227737 42.8125 5.1875 C47.34032531 0.65967469 51.21413362 -0.22296531 57.5 -0.4375 C63.77443478 -0.27350909 67.04772898 0.90213753 71.42578125 5.49609375 C74.97281646 9.50274479 76.13113985 12.41104325 76.09765625 17.66796875 C76.09515869 18.47258545 76.09266113 19.27720215 76.09008789 20.10620117 C76.08098389 21.12302979 76.07187988 22.1398584 76.0625 23.1875 C76.041875 26.425625 76.02125 29.66375 76 33 C84.58 33 93.16 33 102 33 C101.84305809 27.10663893 101.84305809 27.10663893 101.63964844 21.21484375 C101.55279832 14.68147364 102.88404512 9.28105896 107.48364258 4.43774414 C112.75416434 -0.15307836 117.25888065 -0.34623062 123.984375 -0.28125 C129.47133296 0.23048701 132.51603415 2.43581978 136.3125 6.4375 C140.14038173 12.25020929 140.25529376 17.04010696 140.125 23.8125 C140.08375 26.844375 140.0425 29.87625 140 33 C148.58 33 157.16 33 166 33 C165.84252727 26.35845377 165.84252727 26.35845377 165.63964844 19.71826172 C165.57081223 13.9460125 166.04875827 10.52480908 170 6 C174.45868539 1.50931447 177.82216989 -0.18489144 184.125 -0.375 C189.43191792 -0.32222402 192.90282359 0.30320402 197.31640625 3.22265625 C202.38338423 8.57178614 203.45173108 12.89298276 203.3515625 20.08007812 C203.30128906 21.49450195 203.30128906 21.49450195 203.25 22.9375 C203.23195313 23.90751953 203.21390625 24.87753906 203.1953125 25.87695312 C203.14850667 28.25234894 203.08296385 30.62563844 203 33 C204.54107422 32.93039063 204.54107422 32.93039063 206.11328125 32.859375 C219.89496365 32.42244364 229.61376385 35.19152124 239.87109375 44.7421875 C255.00383382 60.42816753 250 78.79338305 250 100 C143.74 100 37.48 100 -72 100 C-72 55.75294118 -72 55.75294118 -60.33984375 43.21484375 C-52.34064533 35.82078564 -43.43799908 32.81475796 -32.75 32.9375 C-32.00492188 32.94201172 -31.25984375 32.94652344 -30.4921875 32.95117188 C-28.6614236 32.96290754 -26.83070127 32.9808415 -25 33 C-25.01571045 32.42556152 -25.0314209 31.85112305 -25.04760742 31.25927734 C-25.11035513 28.63128691 -25.14911506 26.00345463 -25.1875 23.375 C-25.21263672 22.47136719 -25.23777344 21.56773438 -25.26367188 20.63671875 C-25.33244609 14.35534057 -24.73154527 9.90188662 -20.24609375 5.13671875 C-19.64925781 4.65847656 -19.05242187 4.18023437 -18.4375 3.6875 C-17.83808594 3.19636719 -17.23867187 2.70523437 -16.62109375 2.19921875 C-11.80535218 -1.36326959 -5.72015456 -0.58205082 0 0 Z " fill="#55A0FE" transform="translate(132,26)"/>
<path d="M0 0 C24.99090443 -0.32727117 49.98148706 -0.57403083 74.97410393 -0.72537041 C86.57916842 -0.7975136 98.18290035 -0.8958367 109.78710938 -1.05615234 C119.90333361 -1.19584421 130.01859278 -1.28604897 140.1357547 -1.31723893 C145.49168084 -1.33546839 150.84484661 -1.37819101 156.19988632 -1.48022079 C161.24542859 -1.57557089 166.28708692 -1.60450525 171.3334446 -1.58350754 C173.18067518 -1.58734568 175.02804132 -1.61502387 176.87449074 -1.66887665 C190.45527284 -2.04539403 190.45527284 -2.04539403 194.68780375 1.3566184 C197.70669304 4.65450407 199.86411875 8.32169464 201.96865487 12.24390197 C215.32823545 34.99160543 245.50200361 49.43629034 269.984375 56.03515625 C275.59199086 57.44518719 281.25714378 58.33083241 287 59 C287 59.33 287 59.66 287 60 C254.46401243 60.11417069 221.92808279 60.20260382 189.39194049 60.25532665 C185.54693786 60.26157985 181.70193563 60.2680515 177.85693359 60.2746582 C177.09149332 60.27596976 176.32605305 60.27728131 175.53741762 60.2786326 C163.15883108 60.30036322 150.78036116 60.33977173 138.4018437 60.38576398 C125.69141355 60.43259405 112.98104429 60.4603092 100.27053142 60.47044247 C92.43336697 60.47728811 84.59653221 60.49887465 76.7594693 60.53958233 C70.74040073 60.56924597 64.72161314 60.57225769 58.70246315 60.56553841 C56.24027037 60.56691031 53.77806473 60.57680741 51.31594658 60.59602737 C34.74265076 60.719022 22.60528252 60.42449267 10.125 48.32421875 C0.71929343 38.03672719 -0.44847173 27.51472154 -0.1875 13.9375 C-0.17241956 12.58139514 -0.15873712 11.22527398 -0.14648438 9.86914062 C-0.11135836 6.57900398 -0.0621664 3.28971817 0 0 Z " fill="#303C65" transform="translate(60,426)"/>
<path d="M0 0 C5.25340828 1.81848748 7.29463012 4.21886217 10 9 C10.72949219 12.53588867 10.72949219 12.53588867 11.046875 16.41796875 C11.10780334 17.11586014 11.16873169 17.81375153 11.23150635 18.53279114 C11.42046838 20.75003328 11.58504578 22.96835776 11.75 25.1875 C11.87482471 26.65702728 12.00111502 28.12643084 12.12890625 29.59570312 C12.7845812 37.40171705 13.18975361 45.16212176 13 53 C13.71019287 53.04487549 14.42038574 53.08975098 15.15209961 53.13598633 C18.41483652 53.34918331 21.67603322 53.58071137 24.9375 53.8125 C26.05447266 53.88275391 27.17144531 53.95300781 28.32226562 54.02539062 C35.90209312 54.58109645 43.40488423 55.19405598 49.5625 60 C51.78536272 64.63901784 51.84998735 68.95920543 51 74 C49.32565467 77.60518611 47.05184587 79.57135593 43.33642578 81.08544922 C39.49317049 82.13892751 35.69332442 82.65865852 31.7421875 83.0703125 C30.95788361 83.15626678 30.17357971 83.24222107 29.36550903 83.33078003 C27.71017059 83.51041563 26.05446711 83.68671533 24.3984375 83.85986328 C21.90248691 84.12211196 19.40834277 84.39814586 16.9140625 84.67578125 C-6.54926678 87.22536661 -6.54926678 87.22536661 -12.5 84.25 C-13.325 83.5075 -14.15 82.765 -15 82 C-15.7425 81.360625 -16.485 80.72125 -17.25 80.0625 C-23.70558774 72.45412873 -20.93215288 60.58657281 -20.1953125 51.33203125 C-20.11127167 50.25298019 -20.02723083 49.17392914 -19.94064331 48.06217957 C-19.7627757 45.79723157 -19.58282444 43.53244632 -19.40087891 41.26782227 C-19.12500764 37.81259563 -18.86104633 34.35658836 -18.59765625 30.90039062 C-18.42259991 28.69004663 -18.24684273 26.47975802 -18.0703125 24.26953125 C-17.99313995 23.24334183 -17.91596741 22.2171524 -17.8364563 21.15986633 C-16.63863064 6.65035978 -16.63863064 6.65035978 -11.875 2.5625 C-7.77101554 -0.62853989 -5.10039534 -0.72862791 0 0 Z " fill="#EF5659" transform="translate(363,292)"/>
<path d="M0 0 C8.26909139 7.85563682 8.26909139 7.85563682 8.64717102 13.61808777 C8.66193733 14.93091484 8.66193733 14.93091484 8.67700195 16.27026367 C8.69625481 17.76277901 8.69625481 17.76277901 8.71589661 19.28544617 C8.72328354 20.36042862 8.73067047 21.43541107 8.73828125 22.54296875 C8.746353 23.65174881 8.75442474 24.76052887 8.76274109 25.90290833 C8.77657951 28.252395 8.78730274 30.60190175 8.79516602 32.95141602 C8.81234953 36.53115375 8.85623591 40.10996094 8.90039062 43.68945312 C8.91052035 45.97395155 8.91903558 48.25845782 8.92578125 50.54296875 C8.94328934 51.60783005 8.96079742 52.67269135 8.97883606 53.76982117 C8.96032804 60.16426276 8.22679647 65.06018625 4.5 70.375 C-0.04185427 74.80039647 -4.62072603 76.66040037 -10.9375 76.75 C-15.92471197 76.64945137 -18.7068992 75.79804219 -22.5 72.375 C-27.18401542 67.17053842 -28.73226284 63.59157349 -28.9140625 56.58203125 C-28.93360992 55.92281174 -28.95315735 55.26359222 -28.97329712 54.58439636 C-29.03374716 52.45222527 -29.08018843 50.32005285 -29.125 48.1875 C-29.16075401 46.72590214 -29.19688742 45.26431352 -29.23339844 43.80273438 C-29.30252355 40.94232274 -29.36466942 38.08188466 -29.42089844 35.22119141 C-29.48576421 32.06719331 -29.56961616 28.91491128 -29.6640625 25.76171875 C-29.87146935 17.09743506 -29.46225391 10.9716009 -24.6875 3.5625 C-18.18115595 -2.94384405 -8.25951376 -3.83477425 0 0 Z " fill="#303C65" transform="translate(199.5,27.625)"/>
<path d="M0 0 C4.75144381 1.6581721 7.83567967 4.28149066 10.4375 8.5625 C13.63400329 15.59480724 13.16130694 22.36844844 13.04589844 29.96289062 C13.01195549 32.20890236 12.98502747 34.45502259 12.96191406 36.70117188 C12.92505711 40.12726502 12.86404049 43.5523828 12.79046631 46.97787476 C12.7636947 48.3570165 12.74328976 49.73629794 12.72955322 51.1156311 C12.55333277 67.25835177 12.55333277 67.25835177 6.51831055 73.54296875 C1.54676739 77.92867601 -2.74753195 78.415952 -9.140625 78.33984375 C-13.64297665 77.80472818 -16.72911922 76.10116527 -20 73 C-21.68493354 70.71750282 -22.777399 68.59191412 -24 66 C-24.33 65.34 -24.66 64.68 -25 64 C-25.10531264 62.39806701 -25.14872574 60.79186643 -25.16113281 59.18652344 C-25.17074036 58.1849823 -25.1803479 57.18344116 -25.19024658 56.15155029 C-25.19449646 55.06513245 -25.19874634 53.9787146 -25.203125 52.859375 C-25.21167511 51.18696747 -25.21167511 51.18696747 -25.22039795 49.48077393 C-25.22985819 47.11691235 -25.23638598 44.75303753 -25.24023438 42.38916016 C-25.24992289 38.77873557 -25.28093031 35.16888422 -25.3125 31.55859375 C-25.31903164 29.26302422 -25.32428148 26.96745061 -25.328125 24.671875 C-25.3404718 23.59355408 -25.3528186 22.51523315 -25.36553955 21.40423584 C-25.34626536 14.8909815 -24.90938617 10.09081782 -20.24609375 5.13671875 C-19.64925781 4.65847656 -19.05242187 4.18023437 -18.4375 3.6875 C-17.83808594 3.19636719 -17.23867187 2.70523437 -16.62109375 2.19921875 C-11.80535218 -1.36326959 -5.72015456 -0.58205082 0 0 Z " fill="#303C65" transform="translate(132,26)"/>
<path d="M0 0 C5.57436979 3.00531241 8.8943616 7.3440961 10.796875 13.28125 C10.9701714 15.92769159 11.03130835 18.45079766 10.984375 21.09375 C10.97575439 21.88547607 10.96713379 22.67720215 10.95825195 23.49291992 C10.93284422 25.33131444 10.90064284 27.16962207 10.86328125 29.0078125 C10.8004797 32.10355973 10.75325206 35.19933397 10.70707703 38.29536438 C10.65976894 41.17418541 10.59751379 44.05255453 10.53140259 46.93099976 C10.50021032 48.36550001 10.47345101 49.80010394 10.45126343 51.23477173 C10.41771592 53.27820331 10.36534807 55.32037845 10.30859375 57.36328125 C10.28240967 58.55155518 10.25622559 59.7398291 10.22924805 60.96411133 C9.5343764 66.29512264 7.4568438 70.20921398 3.296875 73.59375 C2.41515625 74.33044922 2.41515625 74.33044922 1.515625 75.08203125 C-3.08962817 78.29524198 -8.84676661 77.91054894 -14.203125 77.28125 C-19.20577663 75.50878734 -22.2128599 72.85570959 -24.640625 68.15625 C-26.32653795 64.27033405 -27.32921789 60.91193214 -27.38012695 56.66137695 C-27.39296219 55.72642899 -27.40579742 54.79148102 -27.41902161 53.82820129 C-27.42640854 52.81884018 -27.43379547 51.80947906 -27.44140625 50.76953125 C-27.449478 49.72733932 -27.45754974 48.6851474 -27.46586609 47.6113739 C-27.47970254 45.40312359 -27.49042666 43.19485192 -27.49829102 40.98657227 C-27.51546997 37.6240939 -27.55935708 34.26260746 -27.60351562 30.90039062 C-27.61364586 28.75261138 -27.62216092 26.60482379 -27.62890625 24.45703125 C-27.64641434 23.45779129 -27.66392242 22.45855133 -27.68196106 21.42903137 C-27.66077468 14.54418611 -26.60330198 8.85271806 -21.72016907 3.72358704 C-15.74763095 -1.49382314 -7.54094198 -2.46016547 0 0 Z " fill="#303C66" transform="translate(261.203125,26.71875)"/>
<path d="M0 0 C5.34051894 1.86374918 8.3720704 4.82780903 11.13316345 9.77711487 C12.88554465 14.27085952 12.5670688 19.01645081 12.53125 23.77734375 C12.5350769 24.90266006 12.53890381 26.02797638 12.54284668 27.18739319 C12.54556077 29.5600779 12.53823498 31.93279279 12.52148438 34.30541992 C12.50008934 37.92239647 12.52129464 41.53738215 12.546875 45.15429688 C12.54423125 47.46615019 12.53910529 49.77800227 12.53125 52.08984375 C12.53934692 53.16403061 12.54744385 54.23821747 12.55578613 55.34495544 C12.47681566 61.72014927 11.74436405 66.71044037 8 72 C2.62078041 76.98561816 -0.99845161 78.40785135 -8.2109375 78.24609375 C-13.49872378 77.77952437 -17.22989064 76.15413748 -20.8125 72.125 C-23.92992739 67.6715323 -25.24423379 64.18636613 -25.29052734 58.75415039 C-25.30328705 57.73281509 -25.31604675 56.7114798 -25.32919312 55.65919495 C-25.33141876 54.56638718 -25.33364441 53.47357941 -25.3359375 52.34765625 C-25.3425943 51.21476669 -25.3492511 50.08187714 -25.35610962 48.91465759 C-25.36622298 46.52165346 -25.37092705 44.12862119 -25.37060547 41.7355957 C-25.37498012 38.07911682 -25.41131979 34.42384369 -25.44921875 30.76757812 C-25.45508687 28.44010829 -25.45905629 26.11263273 -25.4609375 23.78515625 C-25.47530853 22.69437271 -25.48967957 21.60358917 -25.50448608 20.47975159 C-25.46075792 13.19922616 -24.55213176 9.57762553 -19.3671875 4.35546875 C-12.98120216 -0.64298574 -8.04948788 -0.8190707 0 0 Z " fill="#303C65" transform="translate(323,26)"/>
<path d="M0 0 C24.02960767 -2.21370146 24.02960767 -2.21370146 30.14648438 1.19677734 C33.35866606 4.29931814 35.18370398 8.1328022 37.04443359 12.14453125 C47.46106411 32.37099828 75.77364014 46.6198783 96.46484375 53.53515625 C104.8749532 56.19521983 113.22970695 57.9780702 122 59 C122 59.33 122 59.66 122 60 C112.00317759 60.20920934 102.00688198 60.36878465 92.00831032 60.46630955 C87.36461288 60.51313568 82.7224209 60.57656682 78.07958984 60.67895508 C73.59256753 60.77727967 69.106986 60.8306671 64.61896896 60.85389519 C62.91327623 60.87043113 61.20765592 60.90272412 59.50258255 60.95157051 C44.49367829 61.36415042 44.49367829 61.36415042 38.09521484 55.62475586 C36.7078296 54.10322114 35.33986235 52.56354552 34 51 C32.83558203 50.01374962 31.65264559 49.04802775 30.4375 48.125 C16.64069272 36.29916519 5.58266346 17.15902987 0 0 Z " fill="#2E344B" transform="translate(225,426)"/>
<path d="M0 0 C1.20017591 -0.00573832 1.20017591 -0.00573832 2.4245978 -0.01159257 C5.11463875 -0.02193897 7.80446691 -0.01792733 10.49452209 -0.01396179 C12.41948647 -0.01830736 14.34444912 -0.02348998 16.26940918 -0.02944946 C21.50488974 -0.04286735 26.74029824 -0.04341504 31.97579265 -0.04088616 C36.34229382 -0.03981835 40.7087803 -0.04469493 45.07527834 -0.04949158 C55.37421707 -0.06059639 65.67311933 -0.06101868 75.97206116 -0.05497742 C86.60632078 -0.0489355 97.24044817 -0.06125199 107.87468523 -0.08254749 C116.99660969 -0.10014466 126.11849198 -0.10616783 135.2404328 -0.10290974 C140.69219497 -0.10109375 146.14386282 -0.10376447 151.59560966 -0.11762428 C156.72147691 -0.13016741 161.84713753 -0.12829192 166.97300148 -0.11521339 C168.85640405 -0.11284039 170.739821 -0.11560807 172.62320709 -0.12383652 C175.19020907 -0.13424464 177.75651007 -0.12625147 180.32348633 -0.11352539 C181.44687854 -0.12458682 181.44687854 -0.12458682 182.59296554 -0.13587171 C185.72058773 -0.10315192 187.91814611 0.09437408 190.69175053 1.59658527 C192.22523499 3.26069641 192.22523499 3.26069641 192.66273499 6.26069641 C192.22523499 9.26069641 192.22523499 9.26069641 191.1889801 10.92438698 C188.13070778 13.00551152 184.94028144 12.67312026 181.36781311 12.64164734 C180.55882317 12.64632731 179.74983322 12.65100728 178.91632843 12.65582907 C176.19621554 12.66782797 173.47660192 12.65830287 170.75648499 12.64888 C168.81019292 12.65294354 166.86390316 12.65828418 164.9176178 12.66481018 C159.62431713 12.67851558 154.33119139 12.67317183 149.03788757 12.66367292 C143.50593077 12.65609301 137.97398923 12.66311729 132.44203186 12.66783142 C123.1509888 12.67329384 113.86001721 12.66608459 104.56898499 12.65180969 C93.81768313 12.63548227 83.06655193 12.64077044 72.31525421 12.65728891 C63.09482611 12.67088991 53.87444947 12.67283023 44.65401459 12.6649729 C39.14248862 12.66028876 33.63104295 12.65969187 28.11952209 12.66958237 C22.93865444 12.6782296 17.75800744 12.67227125 12.5771637 12.6548996 C10.67238227 12.65092273 8.76758237 12.65208919 6.86280823 12.65868759 C4.26917121 12.66684594 1.67624799 12.65665115 -0.91734314 12.64164734 C-2.05677746 12.65168559 -2.05677746 12.65168559 -3.21923065 12.66192663 C-6.16246838 12.62874057 -8.2681367 12.59047809 -10.77366638 10.95954323 C-12.52631215 7.9853341 -11.5892614 5.46050364 -10.77476501 2.26069641 C-7.07756674 -0.20410244 -4.27661622 -0.02151704 0 0 Z " fill="#57A2FE" transform="translate(130.77476501464844,194.7393035888672)"/>
<path d="M0 0 C0.6600152 -0.00170885 1.32003041 -0.0034177 2.00004607 -0.00517833 C4.21578281 -0.00847751 6.43121796 0.00253728 8.64692688 0.01345825 C10.23355604 0.01402227 11.82018572 0.01370598 13.40681458 0.01257324 C17.71852843 0.01199838 22.03013147 0.0237743 26.34181952 0.03772116 C30.84617031 0.05020625 35.3505235 0.05139726 39.85488892 0.05377197 C48.38652009 0.05999328 56.91810013 0.07641289 65.44970876 0.09647095 C75.16179919 0.11880972 84.87389204 0.12981829 94.58600175 0.13986182 C114.56638101 0.16077856 134.5467142 0.19596717 154.52705383 0.24050903 C151.70616827 3.07761158 148.90637099 5.857396 145.83955383 8.42800903 C143.9855826 9.98600259 142.24178203 11.52578084 140.52705383 13.24050903 C137.97796726 13.47936726 137.97796726 13.47936726 134.68807983 13.46324158 C133.44437119 13.46191223 132.20066254 13.46058289 130.91926575 13.45921326 C129.5333997 13.4474751 128.14753547 13.43552015 126.76167297 13.42337036 C125.30813888 13.41785742 123.85460137 13.41318797 122.40106201 13.40930176 C118.44646799 13.39592078 114.49205854 13.36958178 110.53755498 13.34016252 C107.23972578 13.31668493 103.94187571 13.29921041 100.64401048 13.28166407 C92.8654449 13.24007717 85.0870008 13.18776246 77.30854797 13.12893677 C69.27655455 13.0683882 61.24461142 13.02615886 53.21246248 12.99291211 C46.32317628 12.96373347 39.43402319 12.92305683 32.54485601 12.87314814 C28.4272716 12.84344538 24.30977985 12.81818919 20.19211006 12.80402565 C16.3202932 12.79021831 12.44884356 12.76208578 8.57720375 12.72282028 C7.15460854 12.71080793 5.73195988 12.70390095 4.30931473 12.70241737 C2.37047819 12.69959344 0.43170158 12.67669016 -1.50698853 12.6526947 C-2.5930284 12.6454881 -3.67906828 12.6382815 -4.79801846 12.63085651 C-7.47294617 12.24050903 -7.47294617 12.24050903 -9.35363102 10.93740368 C-10.47294617 9.24050903 -10.47294617 9.24050903 -10.34794617 5.67800903 C-8.82444023 -0.30719286 -5.48813909 -0.00854185 0 0 Z " fill="#57A2FE" transform="translate(129.4729461669922,258.7594909667969)"/>
<path d="M0 0 C1.17186263 3.51558788 0.87091086 3.80263328 -0.625 7 C-2.76393243 12.06785383 -4.27505476 17.19476851 -5.6875 22.5 C-5.90164551 23.28246094 -6.11579102 24.06492187 -6.33642578 24.87109375 C-14.22155848 55.07963401 -7.77069654 87.38441305 6.71484375 114.4453125 C8 117 8 117 8 119 C-0.91 119 -9.82 119 -19 119 C-30.48039611 84.55881167 -27.93943125 51.16164309 -12.125 18.6875 C-8.73696707 11.92789689 -4.71788091 5.92244625 0 0 Z " fill="#CDD4F8" transform="translate(244,307)"/>
<path d="M0 0 C0.92060211 -0.00671722 1.84120422 -0.01343445 2.78970337 -0.02035522 C5.83845387 -0.03938167 8.88698481 -0.04326164 11.93579102 -0.04541016 C14.05184521 -0.0518344 16.1678985 -0.05856248 18.28395081 -0.06558228 C22.72171082 -0.07756636 27.15939291 -0.08126189 31.59716797 -0.08007812 C37.28822505 -0.07987477 42.97878369 -0.1071891 48.66972256 -0.14162254 C53.0405762 -0.16384068 57.41130887 -0.16791724 61.78221321 -0.16685867 C63.88061302 -0.16922184 65.9790158 -0.1780854 68.07736015 -0.19352341 C71.01026384 -0.21308217 73.94207942 -0.20738529 76.875 -0.1953125 C77.74422592 -0.20655151 78.61345184 -0.21779053 79.50901794 -0.22937012 C85.37888796 -0.16785641 85.37888796 -0.16785641 88.54530334 2.16073608 C90.35850115 4.81139773 90.56741126 6.14147796 90.00219727 9.29052734 C88.47526301 11.23947424 87.5812389 12.17398004 85.12654877 12.66805077 C84.41789925 12.66918184 83.70924973 12.67031292 82.97912598 12.67147827 C82.16316452 12.67993774 81.34720306 12.68839722 80.5065155 12.69711304 C79.16923149 12.688004 79.16923149 12.688004 77.80493164 12.67871094 C76.86321609 12.6839679 75.92150055 12.68922485 74.95124817 12.69464111 C71.83264673 12.70786486 68.71455406 12.69909451 65.59594727 12.68896484 C63.43265688 12.69098489 61.26936715 12.69389575 59.1060791 12.69766235 C54.5699211 12.70208893 50.03394018 12.69564382 45.49780273 12.68164062 C39.67667292 12.66454868 33.85595803 12.67438806 28.03484344 12.69235802 C23.56708639 12.70318677 19.09942808 12.69975367 14.63166809 12.69197464 C12.48501029 12.68997012 10.33834358 12.69244069 8.19169617 12.6994133 C5.19404271 12.70701273 2.19706582 12.69544452 -0.80053711 12.67871094 C-1.69205978 12.68478363 -2.58358246 12.69085632 -3.50212097 12.69711304 C-4.72606316 12.68442383 -4.72606316 12.68442383 -5.97473145 12.67147827 C-7.03770573 12.66978166 -7.03770573 12.66978166 -8.12215424 12.66805077 C-10.60848529 12.16761147 -11.51280322 11.32381024 -12.99780273 9.29052734 C-12.87280273 5.72802734 -12.87280273 5.72802734 -11.99780273 2.29052734 C-8.03465631 -0.35157027 -4.60139106 -0.00478688 0 0 Z " fill="#58A2FE" transform="translate(131.997802734375,322.70947265625)"/>
<path d="M0 0 C0.66 0.33 1.32 0.66 2 1 C-1.96 4.96 -5.92 8.92 -10 13 C-10 9.28115772 -9.1259934 8.63852271 -6.6875 5.9375 C-5.76517578 4.89916016 -5.76517578 4.89916016 -4.82421875 3.83984375 C-3 2 -3 2 0 0 Z " fill="#75B1FE" transform="translate(77,65)"/>
</svg>
